<svg width="1206" height="280" viewBox="0 0 1206 280" fill="none" xmlns="http://www.w3.org/2000/svg">
<path d="M37.5 49C61.4093 74.1406 95.8078 91.2342 133.241 91.2342C170.537 91.2342 205.606 74.478 229.5 49.5M137.5 8C181.876 29.7185 214.824 80.2114 214.824 136.982C214.824 193.794 182.428 243.609 138 265.304M37.4707 224.271C61.3801 199.13 95.1531 183.458 132.587 183.458C169.882 183.458 205.106 200.522 229 225.5M136.136 265.304C90.6523 244.107 58.7532 194.633 58.7532 136.982C58.7532 80.2114 91.3366 29.7185 135.712 8M136.789 8V267.337M264.483 137.346C264.483 209.829 205.725 268.588 133.242 268.588C60.7589 268.588 2 209.829 2 137.346C2 64.8633 60.7589 6.10437 133.242 6.10437C205.725 6.10437 264.483 64.8633 264.483 137.346Z" stroke="black" stroke-width="4"/>
<circle cx="723.83" cy="140.199" r="138.801" stroke="black" stroke-width="2"/>
<circle cx="1066.2" cy="140.199" r="138.801" stroke="black" stroke-width="2"/>
</svg>
