<svg width="19" height="19" viewBox="0 0 19 19" fill="none" xmlns="http://www.w3.org/2000/svg">
<path d="M3.3397 3.87025C4.88821 5.4985 7.07556 6.51352 9.49997 6.51352C11.9154 6.51352 14.0956 5.50599 15.6431 3.88826M9.9064 1.22973C12.7804 2.63635 14.7838 5.79961 14.7838 9.47642C14.7838 13.1559 12.7775 16.3211 9.90009 17.7262M3.2973 15.1298C4.84581 13.5015 7.03316 12.4865 9.45757 12.4865C11.873 12.4865 14.0532 13.494 15.6007 15.1117M9.68743 17.7873C6.74165 16.4145 4.67568 13.2103 4.67568 9.47642C4.67568 5.79961 6.67902 2.63635 9.55306 1.22973M9.72973 1.18367V17.919M18 9.5C18 14.1944 14.1944 18 9.5 18C4.80558 18 1 14.1944 1 9.5C1 4.80558 4.80558 1 9.5 1C14.1944 1 18 4.80558 18 9.5Z" stroke="white"/>
</svg>
