<svg width="262" height="53" viewBox="0 0 262 53" fill="none" xmlns="http://www.w3.org/2000/svg">
<path d="M8.74384 10.2731C13.2072 14.9663 19.5119 17.8919 26.4999 17.8919C33.4621 17.8919 39.7461 14.9878 44.2065 10.325M27.6714 2.66216C35.9554 6.71654 41.7297 15.8342 41.7297 26.432C41.7297 37.0376 35.9469 46.1608 27.6532 50.2108M8.62162 42.7269C13.085 38.0337 19.3897 35.1081 26.3777 35.1081C33.3399 35.1081 39.6239 38.0122 44.0843 42.675M27.0402 50.3869C18.5495 46.43 12.5946 37.1943 12.5946 26.432C12.5946 15.8342 18.3689 6.71654 26.6529 2.66216M27.1622 2.5294V50.7665M51 26.5C51 40.031 40.031 51 26.5 51C12.969 51 2 40.031 2 26.5C2 12.969 12.969 2 26.5 2C40.031 2 51 12.969 51 26.5Z" stroke="black" stroke-width="3"/>
<circle cx="177.5" cy="25.5" r="23.5" stroke="black" stroke-width="2"/>
<circle cx="237.5" cy="25.5" r="23.5" stroke="black" stroke-width="2"/>
</svg>
